<mxfile host="app.diagrams.net" modified="2023-03-23T04:04:07.648Z" agent="5.0 (X11; Linux x86_64) AppleWebKit/537.36 (KHTML, like Gecko) Chrome/99.0.4844.51 Safari/537.36" etag="7RzmTuUxp1x1JQu_Ue2y" version="21.0.6" type="github">
  <diagram name="Page-1" id="cZUEX3v-I-skDXROvwHG">
    <mxGraphModel dx="1362" dy="775" grid="1" gridSize="10" guides="1" tooltips="1" connect="1" arrows="1" fold="1" page="1" pageScale="1" pageWidth="850" pageHeight="1100" math="0" shadow="0">
      <root>
        <mxCell id="0" />
        <mxCell id="1" parent="0" />
        <mxCell id="rOl_-bxGFpwBq8WTyCc1-2" value="" style="rounded=0;whiteSpace=wrap;html=1;" parent="1" vertex="1">
          <mxGeometry x="195" y="135" width="460" height="650" as="geometry" />
        </mxCell>
        <mxCell id="rOl_-bxGFpwBq8WTyCc1-3" value="R2D2&lt;br&gt;Api" style="shape=cylinder3;whiteSpace=wrap;html=1;boundedLbl=1;backgroundOutline=1;size=15;" parent="1" vertex="1">
          <mxGeometry x="840" y="140" width="115" height="150" as="geometry" />
        </mxCell>
        <mxCell id="rOl_-bxGFpwBq8WTyCc1-4" value="RDBS&lt;br&gt;MySQL" style="shape=cylinder3;whiteSpace=wrap;html=1;boundedLbl=1;backgroundOutline=1;size=15;" parent="1" vertex="1">
          <mxGeometry x="870" y="550" width="110" height="150" as="geometry" />
        </mxCell>
        <mxCell id="rOl_-bxGFpwBq8WTyCc1-6" value="Recherche générale" style="ellipse;whiteSpace=wrap;html=1;" parent="1" vertex="1">
          <mxGeometry x="295" y="250" width="130" height="77.5" as="geometry" />
        </mxCell>
        <mxCell id="rOl_-bxGFpwBq8WTyCc1-7" value="Recherche Costumisée" style="ellipse;whiteSpace=wrap;html=1;" parent="1" vertex="1">
          <mxGeometry x="295" y="347.5" width="130" height="80" as="geometry" />
        </mxCell>
        <mxCell id="rOl_-bxGFpwBq8WTyCc1-10" value="" style="endArrow=classic;html=1;rounded=0;entryX=0;entryY=1;entryDx=0;entryDy=0;" parent="1" source="eG_zqSssfmCS1ICfJA-u-1" target="rOl_-bxGFpwBq8WTyCc1-6" edge="1">
          <mxGeometry width="50" height="50" relative="1" as="geometry">
            <mxPoint x="140" y="398.0649632247573" as="sourcePoint" />
            <mxPoint x="450" y="360" as="targetPoint" />
          </mxGeometry>
        </mxCell>
        <mxCell id="rOl_-bxGFpwBq8WTyCc1-11" value="" style="endArrow=classic;html=1;rounded=0;" parent="1" source="eG_zqSssfmCS1ICfJA-u-1" target="rOl_-bxGFpwBq8WTyCc1-7" edge="1">
          <mxGeometry width="50" height="50" relative="1" as="geometry">
            <mxPoint x="140" y="412.66666666666674" as="sourcePoint" />
            <mxPoint x="450" y="360" as="targetPoint" />
          </mxGeometry>
        </mxCell>
        <mxCell id="rOl_-bxGFpwBq8WTyCc1-12" value="Mapping" style="ellipse;whiteSpace=wrap;html=1;" parent="1" vertex="1">
          <mxGeometry x="457.5" y="210" width="130" height="80" as="geometry" />
        </mxCell>
        <mxCell id="rOl_-bxGFpwBq8WTyCc1-15" value="&lt;b&gt;Use case v 0.1&lt;br&gt;Module SP&lt;/b&gt;" style="text;html=1;strokeColor=none;fillColor=none;align=center;verticalAlign=middle;whiteSpace=wrap;rounded=0;" parent="1" vertex="1">
          <mxGeometry x="378" y="90" width="95" height="30" as="geometry" />
        </mxCell>
        <mxCell id="rOl_-bxGFpwBq8WTyCc1-17" value="" style="endArrow=classic;html=1;rounded=0;entryX=0.942;entryY=0.25;entryDx=0;entryDy=0;entryPerimeter=0;" parent="1" source="rOl_-bxGFpwBq8WTyCc1-3" target="rOl_-bxGFpwBq8WTyCc1-12" edge="1">
          <mxGeometry width="50" height="50" relative="1" as="geometry">
            <mxPoint x="564" y="368" as="sourcePoint" />
            <mxPoint x="690" y="432" as="targetPoint" />
          </mxGeometry>
        </mxCell>
        <mxCell id="rOl_-bxGFpwBq8WTyCc1-18" value="&lt;b&gt;Get&lt;br&gt;JSON&lt;br&gt;&lt;/b&gt;" style="text;html=1;strokeColor=none;fillColor=none;align=center;verticalAlign=middle;whiteSpace=wrap;rounded=0;" parent="1" vertex="1">
          <mxGeometry x="700" y="170" width="60" height="30" as="geometry" />
        </mxCell>
        <mxCell id="rOl_-bxGFpwBq8WTyCc1-19" value="&lt;b&gt;CRUD&lt;/b&gt;" style="text;html=1;strokeColor=none;fillColor=none;align=center;verticalAlign=middle;whiteSpace=wrap;rounded=0;" parent="1" vertex="1">
          <mxGeometry x="700" y="570" width="60" height="30" as="geometry" />
        </mxCell>
        <mxCell id="rOl_-bxGFpwBq8WTyCc1-21" value="&lt;br&gt;Directories&lt;br&gt;CSV,DOCX" style="shape=cylinder3;whiteSpace=wrap;html=1;boundedLbl=1;backgroundOutline=1;size=15;fillColor=#d5e8d4;strokeColor=#82b366;" parent="1" vertex="1">
          <mxGeometry x="1170" y="232.5" width="120" height="160" as="geometry" />
        </mxCell>
        <mxCell id="rOl_-bxGFpwBq8WTyCc1-24" value="" style="shape=flexArrow;endArrow=classic;startArrow=classic;html=1;rounded=0;fillColor=#0050ef;strokeColor=#001DBC;" parent="1" edge="1">
          <mxGeometry width="100" height="100" relative="1" as="geometry">
            <mxPoint x="1010" y="320" as="sourcePoint" />
            <mxPoint x="1110" y="320" as="targetPoint" />
          </mxGeometry>
        </mxCell>
        <mxCell id="rOl_-bxGFpwBq8WTyCc1-25" value="" style="endArrow=classic;startArrow=classic;html=1;rounded=0;entryX=-0.036;entryY=0.45;entryDx=0;entryDy=0;entryPerimeter=0;" parent="1" source="rOl_-bxGFpwBq8WTyCc1-12" target="rOl_-bxGFpwBq8WTyCc1-4" edge="1">
          <mxGeometry width="50" height="50" relative="1" as="geometry">
            <mxPoint x="610" y="420" as="sourcePoint" />
            <mxPoint x="660" y="370" as="targetPoint" />
          </mxGeometry>
        </mxCell>
        <mxCell id="rOl_-bxGFpwBq8WTyCc1-26" value="&lt;b&gt;MatchUp&lt;/b&gt;" style="text;html=1;strokeColor=none;fillColor=none;align=center;verticalAlign=middle;whiteSpace=wrap;rounded=0;" parent="1" vertex="1">
          <mxGeometry x="397.5" y="730" width="60" height="30" as="geometry" />
        </mxCell>
        <mxCell id="LON2oFGz_T9k3AkA141l-7" value="S&#39;Authentifier" style="ellipse;whiteSpace=wrap;html=1;" parent="1" vertex="1">
          <mxGeometry x="273.75" y="145" width="120" height="80" as="geometry" />
        </mxCell>
        <mxCell id="LON2oFGz_T9k3AkA141l-8" value="" style="endArrow=classic;html=1;rounded=0;" parent="1" source="eG_zqSssfmCS1ICfJA-u-1" target="LON2oFGz_T9k3AkA141l-7" edge="1">
          <mxGeometry width="50" height="50" relative="1" as="geometry">
            <mxPoint x="140" y="382.608695652174" as="sourcePoint" />
            <mxPoint x="240" y="230" as="targetPoint" />
          </mxGeometry>
        </mxCell>
        <mxCell id="eG_zqSssfmCS1ICfJA-u-1" value="Staffing Partner" style="shape=umlActor;verticalLabelPosition=bottom;verticalAlign=top;html=1;outlineConnect=0;" vertex="1" parent="1">
          <mxGeometry x="60" y="350" width="60" height="90" as="geometry" />
        </mxCell>
        <mxCell id="eG_zqSssfmCS1ICfJA-u-2" value="Editer" style="ellipse;whiteSpace=wrap;html=1;" vertex="1" parent="1">
          <mxGeometry x="320" y="600" width="120" height="80" as="geometry" />
        </mxCell>
        <mxCell id="eG_zqSssfmCS1ICfJA-u-3" value="Visualiser" style="ellipse;whiteSpace=wrap;html=1;" vertex="1" parent="1">
          <mxGeometry x="220" y="680" width="120" height="80" as="geometry" />
        </mxCell>
        <mxCell id="eG_zqSssfmCS1ICfJA-u-4" value="Imprimer" style="ellipse;whiteSpace=wrap;html=1;" vertex="1" parent="1">
          <mxGeometry x="320" y="440" width="120" height="80" as="geometry" />
        </mxCell>
        <mxCell id="eG_zqSssfmCS1ICfJA-u-5" value="Supprimer&lt;br&gt;un collaborateur" style="ellipse;whiteSpace=wrap;html=1;" vertex="1" parent="1">
          <mxGeometry x="430" y="530" width="120" height="80" as="geometry" />
        </mxCell>
        <mxCell id="eG_zqSssfmCS1ICfJA-u-6" value="PEPSRH&lt;br&gt;Api" style="shape=cylinder3;whiteSpace=wrap;html=1;boundedLbl=1;backgroundOutline=1;size=15;" vertex="1" parent="1">
          <mxGeometry x="840" y="347.5" width="115" height="150" as="geometry" />
        </mxCell>
        <mxCell id="eG_zqSssfmCS1ICfJA-u-7" value="" style="endArrow=classic;html=1;rounded=0;entryX=0;entryY=0.5;entryDx=0;entryDy=0;" edge="1" parent="1" source="eG_zqSssfmCS1ICfJA-u-1" target="eG_zqSssfmCS1ICfJA-u-2">
          <mxGeometry width="50" height="50" relative="1" as="geometry">
            <mxPoint x="670" y="510" as="sourcePoint" />
            <mxPoint x="720" y="460" as="targetPoint" />
          </mxGeometry>
        </mxCell>
        <mxCell id="eG_zqSssfmCS1ICfJA-u-8" value="" style="endArrow=classic;html=1;rounded=0;" edge="1" parent="1" source="eG_zqSssfmCS1ICfJA-u-1" target="eG_zqSssfmCS1ICfJA-u-3">
          <mxGeometry width="50" height="50" relative="1" as="geometry">
            <mxPoint x="670" y="510" as="sourcePoint" />
            <mxPoint x="720" y="460" as="targetPoint" />
          </mxGeometry>
        </mxCell>
        <mxCell id="eG_zqSssfmCS1ICfJA-u-9" value="" style="endArrow=classic;html=1;rounded=0;" edge="1" parent="1" target="eG_zqSssfmCS1ICfJA-u-4">
          <mxGeometry width="50" height="50" relative="1" as="geometry">
            <mxPoint x="120" y="410" as="sourcePoint" />
            <mxPoint x="720" y="460" as="targetPoint" />
          </mxGeometry>
        </mxCell>
        <mxCell id="eG_zqSssfmCS1ICfJA-u-10" value="" style="endArrow=classic;html=1;rounded=0;exitX=-0.009;exitY=0.457;exitDx=0;exitDy=0;exitPerimeter=0;" edge="1" parent="1" source="eG_zqSssfmCS1ICfJA-u-6" target="rOl_-bxGFpwBq8WTyCc1-12">
          <mxGeometry width="50" height="50" relative="1" as="geometry">
            <mxPoint x="670" y="510" as="sourcePoint" />
            <mxPoint x="720" y="460" as="targetPoint" />
          </mxGeometry>
        </mxCell>
        <mxCell id="eG_zqSssfmCS1ICfJA-u-11" value="&lt;b&gt;Get&lt;br&gt;JSON&lt;br&gt;&lt;/b&gt;" style="text;html=1;strokeColor=none;fillColor=none;align=center;verticalAlign=middle;whiteSpace=wrap;rounded=0;" vertex="1" parent="1">
          <mxGeometry x="700" y="297.5" width="60" height="30" as="geometry" />
        </mxCell>
        <mxCell id="eG_zqSssfmCS1ICfJA-u-12" value="" style="endArrow=classic;html=1;rounded=0;entryX=0;entryY=0.5;entryDx=0;entryDy=0;" edge="1" parent="1" target="eG_zqSssfmCS1ICfJA-u-5">
          <mxGeometry width="50" height="50" relative="1" as="geometry">
            <mxPoint x="120" y="420" as="sourcePoint" />
            <mxPoint x="720" y="450" as="targetPoint" />
          </mxGeometry>
        </mxCell>
        <mxCell id="eG_zqSssfmCS1ICfJA-u-13" value="" style="shape=card;whiteSpace=wrap;html=1;gradientColor=none;shadow=0;dashed=1;fillColor=none;strokeWidth=3;" vertex="1" parent="1">
          <mxGeometry x="810" y="120" width="170" height="400" as="geometry" />
        </mxCell>
        <mxCell id="eG_zqSssfmCS1ICfJA-u-14" value="&lt;b&gt;Equivalence&lt;/b&gt;" style="text;html=1;strokeColor=none;fillColor=none;align=center;verticalAlign=middle;whiteSpace=wrap;rounded=0;" vertex="1" parent="1">
          <mxGeometry x="1030" y="240" width="60" height="30" as="geometry" />
        </mxCell>
        <mxCell id="eG_zqSssfmCS1ICfJA-u-15" value="" style="endArrow=classic;html=1;rounded=0;exitX=1.021;exitY=0.625;exitDx=0;exitDy=0;exitPerimeter=0;" edge="1" parent="1" source="eG_zqSssfmCS1ICfJA-u-5">
          <mxGeometry width="50" height="50" relative="1" as="geometry">
            <mxPoint x="670" y="550" as="sourcePoint" />
            <mxPoint x="870" y="620" as="targetPoint" />
          </mxGeometry>
        </mxCell>
        <mxCell id="eG_zqSssfmCS1ICfJA-u-16" value="" style="endArrow=classic;html=1;rounded=0;" edge="1" parent="1" source="eG_zqSssfmCS1ICfJA-u-2" target="rOl_-bxGFpwBq8WTyCc1-4">
          <mxGeometry width="50" height="50" relative="1" as="geometry">
            <mxPoint x="670" y="500" as="sourcePoint" />
            <mxPoint x="790" y="680" as="targetPoint" />
          </mxGeometry>
        </mxCell>
        <mxCell id="eG_zqSssfmCS1ICfJA-u-17" value="Administrateur" style="shape=umlActor;verticalLabelPosition=bottom;verticalAlign=top;html=1;outlineConnect=0;" vertex="1" parent="1">
          <mxGeometry x="700" y="750" width="70" height="110" as="geometry" />
        </mxCell>
        <mxCell id="eG_zqSssfmCS1ICfJA-u-26" value="" style="endArrow=classic;html=1;rounded=0;entryX=0.5;entryY=1;entryDx=0;entryDy=0;" edge="1" parent="1" source="eG_zqSssfmCS1ICfJA-u-17" target="rOl_-bxGFpwBq8WTyCc1-12">
          <mxGeometry width="50" height="50" relative="1" as="geometry">
            <mxPoint x="670" y="570" as="sourcePoint" />
            <mxPoint x="720" y="520" as="targetPoint" />
            <Array as="points">
              <mxPoint x="670" y="500" />
            </Array>
          </mxGeometry>
        </mxCell>
        <mxCell id="eG_zqSssfmCS1ICfJA-u-27" value="" style="endArrow=classic;html=1;rounded=0;entryX=1;entryY=1;entryDx=0;entryDy=0;" edge="1" parent="1" source="eG_zqSssfmCS1ICfJA-u-17" target="LON2oFGz_T9k3AkA141l-7">
          <mxGeometry width="50" height="50" relative="1" as="geometry">
            <mxPoint x="670" y="570" as="sourcePoint" />
            <mxPoint x="720" y="520" as="targetPoint" />
            <Array as="points">
              <mxPoint x="580" y="440" />
            </Array>
          </mxGeometry>
        </mxCell>
        <mxCell id="eG_zqSssfmCS1ICfJA-u-28" value="" style="endArrow=classic;html=1;rounded=0;entryX=0.233;entryY=0.981;entryDx=0;entryDy=0;entryPerimeter=0;exitX=1.036;exitY=0.573;exitDx=0;exitDy=0;exitPerimeter=0;" edge="1" parent="1" source="rOl_-bxGFpwBq8WTyCc1-4" target="rOl_-bxGFpwBq8WTyCc1-21">
          <mxGeometry width="50" height="50" relative="1" as="geometry">
            <mxPoint x="1010" y="600" as="sourcePoint" />
            <mxPoint x="1060" y="550" as="targetPoint" />
          </mxGeometry>
        </mxCell>
      </root>
    </mxGraphModel>
  </diagram>
</mxfile>
